PathFileType	4	(X/Y/Z)	Patient4_TMGait_0pt3_01_left_27.trc.trc
DataRate	CameraRate	NumFrames	NumMarkers	Units	OrigDataRate	OrigDataStartFrame	OrigNumFrames
50.724637681159	50.724637681159	4	33	mm	50.724637681159	89	       141
Frame#	Time	Sacral			L.Shoulder			Chest			R.Shoulder			Neck			R.ASIS			L.ASIS			R.Thigh.Superior			R.Thigh.Lateral			R.Thigh.Inferior			R.Patella			L.Thigh.Superior			L.Thigh.Lateral			L.Thigh.Inferior			L.Patella			L.Shank.Superior			L.Shank.Lateral			L.Shank.Inferior			R.Shank.Superior			R.Shank.Lateral			R.Shank.Inferior			R.Heel			R.Midfoot.Superior			R.Midfoot.Lateral			R.Toe			L.Heel			L.Midfoot.Lateral			L.Midfoot.Superior			L.Toe			L.Elbow			L.Wrist			R.Elbow			R.Wrist			
		X1	Y1	Z1	X2	Y2	Z2	X3	Y3	Z3	X4	Y4	Z4	X5	Y5	Z5	X6	Y6	Z6	X7	Y7	Z7	X8	Y8	Z8	X9	Y9	Z9	X10	Y10	Z10	X11	Y11	Z11	X12	Y12	Z12	X13	Y13	Z13	X14	Y14	Z14	X15	Y15	Z15	X16	Y16	Z16	X17	Y17	Z17	X18	Y18	Z18	X19	Y19	Z19	X20	Y20	Z20	X21	Y21	Z21	X22	Y22	Z22	X23	Y23	Z23	X24	Y24	Z24	X25	Y25	Z25	X26	Y26	Z26	X27	Y27	Z27	X28	Y28	Z28	X29	Y29	Z29	X30	Y30	Z30	X31	Y31	Z31	X32	Y32	Z32	X33	Y33	Z33	

89	52.544857142857	727.363658250115	1000.799761007975	458.236359445893	946.646437264670	1445.206675983829	353.233221436769	996.892112936537	1365.518549703270	532.071136444477	863.619263402309	1428.209953999578	676.882535447209	877.608570202074	1492.643304466398	503.643463567198	929.630177710416	941.524915450372	624.565279513151	972.451085095733	964.881339625211	354.765530060424	993.632879678643	749.111513813872	597.140126044206	914.461179323068	632.917818726554	644.022677337856	1006.858768800653	588.942970418340	574.361466195794	1014.213757110288	501.927927518079	580.767253443466	988.455821394071	732.139618751173	375.546308123558	896.020742912719	623.385345699487	300.155554446938	966.360165864098	534.437774346951	367.686247573079	953.143951286382	453.257095247065	364.573909021493	890.029901697891	397.223002362326	354.334553242115	757.258906471367	339.413043296397	300.347129193921	754.577264878625	210.939469714694	358.124672398592	991.715973856792	410.504502943882	585.053173291468	920.782120523254	301.744580026107	638.770853184335	977.535418526506	210.457535007696	581.335769570830	856.596711873528	41.609205526136	541.066486545237	1025.686911724288	98.767209161891	585.166535696984	937.053469275600	36.372669223140	619.556206652444	1144.496480541556	50.889473566283	615.645848080149	572.164941239687	116.836363306107	392.317759055574	638.815430489308	84.265396041478	313.589137800707	738.771664640590	113.644779819137	337.245859671536	837.531937184751	33.328210295721	311.012265521707	1079.686102742742	1146.134988658185	196.143773820007	1332.652645731751	1132.702697174569	249.415582935465	717.922335229058	1104.123493866305	740.708112731254	719.282997138093	844.878166436188	775.253946256736	
90	52.564571428571	727.541929293181	1001.150977698471	464.594039588113	944.729836611807	1445.992776415805	356.721555587905	997.518193607286	1366.357234178050	534.954194755947	865.849957625758	1428.481460814258	681.356721434766	877.573406508991	1493.368442440022	507.817138395188	931.757210586762	942.174621848989	628.592886680153	971.556855763598	965.696162976371	358.539489132440	993.734672505074	748.386056105530	600.717304003650	913.617309747787	632.704981912263	647.196396961934	1005.251171392946	588.180166917070	576.995388905578	1011.738428578557	501.139542195002	582.679135771906	992.764718859796	734.583698872004	379.274631631235	903.825429432049	623.935359650683	303.706803436487	976.996728939396	536.211482535806	370.939761972607	964.771282581323	453.780879076097	366.833269505292	899.667928016967	398.181049788618	356.584979903919	764.771199332758	345.306237971174	302.729410424360	758.339206741230	216.375042342296	359.021517689276	988.684785440845	409.888046714889	586.520521199647	917.329514328939	301.348167880376	639.998489305243	972.999912738225	210.005803482549	581.720167868902	850.907122895431	41.569786886684	541.146171512657	1019.984630085948	98.689456842016	585.292665313076	931.314175693368	36.372224592486	619.636153724224	1138.795116806180	50.707588551629	615.863783627322	572.892936241987	130.775477244383	392.884378485763	637.587019347171	94.667761493249	314.024729299478	739.020386135494	118.066970691870	337.541703122962	832.232240676033	32.175891132691	311.169791101424	1072.058960106797	1143.960391761202	199.032284822756	1325.176915821524	1125.194497519415	251.421334669942	724.361811354465	1103.111708136741	750.000791923081	730.794899308665	844.233189040981	786.546311558677	
91	52.584285714286	727.467082638492	1001.255037356212	470.872069500445	942.501174576192	1446.461422243726	359.802082180555	997.873188731871	1366.984715951188	537.406957501295	867.921600862836	1428.613228620846	685.432880391511	877.384313866747	1493.914718333295	511.577089996971	933.711076104818	942.646426933882	632.432647181585	970.292272637695	966.250845941922	362.102910855769	993.838190245863	747.642458174192	603.849009873425	912.972861714889	632.340808338008	650.057051309212	1003.729602997508	587.364933108402	579.172872273490	1009.408493748794	500.261285502111	584.139273352739	997.109524099993	737.152438462324	383.094972522138	912.005980746304	624.579521074853	307.345214132802	987.840022601924	538.303627565800	374.624292035718	976.736235574381	454.654913635123	369.605246320023	909.812213984715	399.348454238598	359.169398982316	773.042021147848	351.345542643343	305.286782654686	762.787634540620	222.115467554417	360.204469205511	985.799439628880	409.180900329348	587.612554426756	914.103913587302	300.891902903675	640.982084434490	968.546398766912	209.483599089328	581.849652329180	845.181141673964	41.554222959685	541.179245499372	1014.264904108336	98.550606726995	585.310519691249	925.530916953177	36.383059005533	619.659264091317	1133.070629466173	50.375187763134	616.045346791192	574.624130412067	145.095245059637	393.694693481670	637.251778006381	105.687604075071	314.632962139402	739.920481504541	122.956806883618	338.083862447476	827.379841260599	31.109467617418	311.306583820059	1063.372175971340	1141.085158880345	201.780122253639	1316.474326313542	1115.778999732545	253.276072203149	731.266658653695	1101.807187960515	759.147305822639	742.994170066044	843.402034607079	797.656189666481	
92	52.604000000000	727.161215365758	1001.115016403522	477.095228369376	939.956796518008	1446.598862151926	362.461525035702	997.954586220489	1367.408547691777	539.418310479958	869.841405309591	1428.652263436686	689.090809985843	877.030639316377	1494.283752689039	514.896896777275	935.512874511060	942.946042264078	636.074216163055	968.667801412331	966.552425923454	365.444489842471	994.034401915484	746.918782496316	606.516599256875	912.652804761851	631.843565448408	652.606719681332	1002.423464453398	586.530269431219	580.886770441415	1007.383213639439	499.295413559760	585.155174064285	1001.377654075875	739.838709399921	387.026578215860	920.382509908797	625.361511783806	311.101017652152	998.650061880319	540.728645902119	378.775859183462	988.807975549552	455.903889131307	372.926383414576	920.258771492019	400.747999390198	362.117184334208	781.884611366148	357.412728288711	308.065758607987	767.891826208420	228.006028946826	361.703784814854	983.168130825159	408.383955542131	588.343040737002	911.173260851806	300.397564706684	641.748087518784	964.205221542564	208.890915690638	581.744857523069	839.407116406475	41.566083813868	541.175437306703	1008.523115560667	98.355564178570	585.219179522650	919.699222909423	36.408712461608	619.637209652639	1127.319792474038	49.902876381414	616.183624843083	577.391843284102	159.260507981589	394.794107696534	637.937629556171	116.927018834643	315.447049573082	741.580289062410	128.176179186115	338.877626959676	823.318023176184	30.284438573644	311.405735622612	1053.716156454837	1137.532921586690	204.487268357500	1306.479126097340	1104.255339438204	255.024048905297	738.674283019550	1100.247096434683	768.034983807249	756.066495052914	842.436737110789	808.440308456192	
